<?xml version="1.0" standalone="no"?>
<!DOCTYPE svg PUBLIC "-//W3C//DTD SVG 20010904//EN"
 "http://www.w3.org/TR/2001/REC-SVG-20010904/DTD/svg10.dtd">
<svg version="1.0" xmlns="http://www.w3.org/2000/svg"
 width="640.000000pt" height="401.000000pt" viewBox="0 0 640.000000 401.000000"
 preserveAspectRatio="xMidYMid meet">

<g transform="translate(0.000000,401.000000) scale(0.100000,-0.100000)"
fill="#000000" stroke="none">
<path d="M1779 3777 c-104 -30 -213 -126 -264 -233 -29 -62 -55 -181 -55 -255
l0 -49 59 0 59 0 7 37 c9 48 27 82 60 113 22 21 36 25 88 25 53 0 79 -8 182
-53 261 -116 359 -141 468 -121 88 16 159 54 221 119 90 94 135 214 136 358
l0 62 -54 0 -55 0 -26 -57 c-50 -109 -93 -133 -197 -109 -34 8 -101 31 -148
51 -284 123 -271 118 -355 122 -45 1 -100 -3 -126 -10z"/>
<path d="M692 2938 c3 -32 4 -33 67 -41 115 -14 169 -48 268 -171 l64 -79 -3
-1026 -3 -1026 -24 -58 c-51 -127 -117 -166 -324 -192 -47 -6 -48 -7 -45 -38
l3 -32 475 0 475 0 3 30 3 31 -95 11 c-165 19 -258 86 -296 213 -20 63 -20 93
-18 976 l3 911 905 -1118 c861 -1064 907 -1118 938 -1119 l32 0 0 1145 c0
1153 4 1297 36 1374 21 51 61 99 97 118 18 9 75 27 127 38 94 22 95 22 98 53
l3 32 -445 0 -446 0 0 -34 0 -33 73 -6 c96 -8 156 -30 211 -78 57 -50 84 -119
96 -248 11 -114 13 -1261 3 -1261 -5 1 -303 373 -664 828 l-655 827 -483 3
-482 2 3 -32z"/>
<path d="M4427 2899 c-64 -15 -138 -59 -191 -113 -88 -88 -128 -186 -142 -345
l-7 -81 61 0 60 0 11 47 c16 60 46 102 87 119 63 26 99 17 309 -76 176 -78
232 -94 335 -94 99 0 160 21 240 79 108 79 168 205 177 373 l6 92 -55 0 -54 0
-22 -53 c-13 -30 -38 -69 -58 -88 -31 -30 -41 -34 -87 -33 -65 0 -125 20 -305
100 -78 35 -162 68 -185 74 -51 11 -128 11 -180 -1z"/>
<path d="M4895 2175 c-123 -27 -224 -86 -347 -204 l-78 -74 0 117 0 116 -381
0 -380 0 3 -32 c3 -29 8 -33 48 -43 72 -19 110 -43 128 -83 15 -33 17 -106 17
-762 0 -787 0 -781 -55 -820 -15 -11 -52 -26 -81 -34 -52 -13 -54 -15 -54 -47
l0 -34 465 0 465 0 0 34 c0 31 -4 35 -40 46 -61 18 -91 42 -112 88 -17 39 -18
86 -21 639 l-3 598 33 47 c75 110 165 177 252 189 59 8 88 0 130 -37 72 -63
71 -49 71 -754 0 -621 0 -631 -21 -676 -23 -49 -68 -84 -123 -95 -29 -6 -31
-10 -31 -47 l0 -40 347 6 c190 4 402 7 470 7 l124 0 -3 32 c-3 30 -7 33 -45
40 -48 8 -91 28 -115 55 -36 40 -40 97 -48 733 -8 666 -9 676 -61 786 -96 204
-314 302 -554 249z"/>
</g>
</svg>
